<?xml version="1.0" encoding="iso-8859-1"?>
<!-- Generator: Adobe Illustrator 19.0.0, SVG Export Plug-In . SVG Version: 6.00 Build 0)  -->
<svg version="1.1" id="Layer_1" xmlns="http://www.w3.org/2000/svg" xmlns:xlink="http://www.w3.org/1999/xlink" x="0px" y="0px"
	 viewBox="0 0 504.123 504.123" style="enable-background:new 0 0 504.123 504.123;" xml:space="preserve">
<circle style="fill:black;" cx="252.062" cy="252.062" r="252.062"/>
<path style="fill:black;" d="M73.83,73.823c98.43-98.43,258.032-98.43,356.462,0c98.43,98.438,98.446,258.032,0,356.478"/>
<path style="fill:white;" d="M383.323,154.482c-0.079,0-0.158-0.882-0.228-0.882H121.029c-0.079,0-0.158,0.882-0.228,0.882
	l131.261,108.623L383.323,154.482z"/>
<path style="fill:white;" d="M252.062,294.636L106.338,174.049v160.067c0,8.105,6.569,16.408,14.69,16.408h262.065
	c8.105,0,14.69-8.302,14.69-16.408V174.049L252.062,294.636z"/>
<path style="fill:white;" d="M348.798,350.523h34.296c8.105,0,14.69-8.302,14.69-16.408V174.049L275.354,276.22L348.798,350.523z"
	/>
<g>
	<polygon style="fill:black;" points="232.999,122.092 252.062,141.147 271.124,122.092 	"/>
	<polygon style="fill:black;" points="232.999,98.462 252.062,117.516 271.124,98.462 	"/>
</g>
<g>
</g>
<g>
</g>
<g>
</g>
<g>
</g>
<g>
</g>
<g>
</g>
<g>
</g>
<g>
</g>
<g>
</g>
<g>
</g>
<g>
</g>
<g>
</g>
<g>
</g>
<g>
</g>
<g>
</g>
</svg>
